<?xml version="1.0" encoding="utf-8"?>
<!-- Generator: Adobe Illustrator 27.5.0, SVG Export Plug-In . SVG Version: 6.00 Build 0)  -->
<svg version="1.1" id="Layer_1" xmlns="http://www.w3.org/2000/svg" xmlns:xlink="http://www.w3.org/1999/xlink" x="0px" y="0px"
	 viewBox="0 0 141.73 141.73" style="enable-background:new 0 0 141.73 141.73;" xml:space="preserve">
<g>
	<g>
		<path d="M92.33,67.06l-1.6-4.03h-7.95l-1.51,4.03h-5.39l8.61-20.53h4.81l8.53,20.53H92.33z M86.82,52.01l-2.61,7.05h5.16
			L86.82,52.01z"/>
		<path d="M110.4,51.87c-0.42-0.54-0.98-0.97-1.67-1.29c-0.69-0.32-1.35-0.48-1.99-0.48c-0.33,0-0.66,0.03-1,0.09
			s-0.64,0.17-0.91,0.33c-0.27,0.16-0.5,0.38-0.68,0.64c-0.18,0.26-0.28,0.59-0.28,1c0,0.35,0.07,0.64,0.22,0.87
			c0.15,0.23,0.36,0.44,0.64,0.61c0.28,0.17,0.61,0.33,1,0.48c0.39,0.15,0.82,0.3,1.31,0.45c0.7,0.23,1.42,0.49,2.17,0.77
			s1.44,0.65,2.06,1.12c0.62,0.46,1.13,1.04,1.54,1.73c0.41,0.69,0.61,1.54,0.61,2.57c0,1.18-0.22,2.2-0.65,3.06
			c-0.44,0.86-1.02,1.57-1.75,2.13c-0.74,0.56-1.58,0.98-2.52,1.25s-1.92,0.41-2.93,0.41c-1.47,0-2.89-0.26-4.26-0.77
			c-1.37-0.51-2.51-1.24-3.42-2.19l3.25-3.31c0.5,0.62,1.16,1.14,1.99,1.55c0.82,0.42,1.64,0.62,2.45,0.62
			c0.37,0,0.73-0.04,1.07-0.12c0.35-0.08,0.65-0.2,0.91-0.38c0.26-0.17,0.47-0.41,0.62-0.7c0.15-0.29,0.23-0.64,0.23-1.04
			c0-0.39-0.1-0.72-0.29-0.99c-0.19-0.27-0.47-0.52-0.83-0.74c-0.36-0.22-0.8-0.43-1.33-0.61c-0.53-0.18-1.14-0.38-1.81-0.59
			c-0.66-0.21-1.3-0.46-1.93-0.75s-1.19-0.66-1.68-1.12c-0.49-0.45-0.89-1-1.19-1.65c-0.3-0.65-0.45-1.44-0.45-2.36
			c0-1.14,0.23-2.12,0.7-2.93s1.07-1.48,1.83-2s1.6-0.9,2.55-1.15s1.9-0.36,2.87-0.36c1.16,0,2.34,0.21,3.55,0.64
			c1.21,0.43,2.27,1.05,3.17,1.89L110.4,51.87z"/>
		<path d="M129.65,67.06v-8.58h-8v8.58h-4.96V46.53h4.96v7.77h8v-7.77h4.96v20.53H129.65z"/>
	</g>
	<g>
		<path d="M61.25,84.26c0-1.12,0.19-2.14,0.58-3.07c0.39-0.93,0.92-1.72,1.61-2.38c0.69-0.66,1.5-1.17,2.45-1.53
			c0.95-0.36,1.97-0.54,3.08-0.54c1.11,0,2.13,0.18,3.07,0.54c0.94,0.36,1.75,0.87,2.44,1.53c0.69,0.66,1.22,1.45,1.61,2.38
			s0.58,1.95,0.58,3.07c0,1.13-0.19,2.16-0.58,3.07c-0.39,0.91-0.92,1.69-1.61,2.33c-0.69,0.64-1.5,1.13-2.44,1.48
			s-1.96,0.52-3.07,0.52c-1.11,0-2.13-0.17-3.08-0.52c-0.95-0.35-1.76-0.84-2.45-1.48c-0.69-0.64-1.22-1.42-1.61-2.33
			C61.44,86.42,61.25,85.4,61.25,84.26z M64.91,84.26c0,0.61,0.1,1.19,0.3,1.72c0.2,0.53,0.48,0.99,0.83,1.37
			c0.35,0.38,0.78,0.68,1.28,0.9c0.5,0.22,1.05,0.33,1.65,0.33s1.15-0.11,1.64-0.33c0.49-0.22,0.92-0.52,1.28-0.9
			s0.64-0.84,0.83-1.37s0.29-1.11,0.29-1.72c0-0.64-0.1-1.23-0.3-1.77c-0.2-0.54-0.48-1-0.83-1.39s-0.78-0.69-1.27-0.91
			c-0.49-0.22-1.04-0.33-1.64-0.33s-1.15,0.11-1.64,0.33c-0.49,0.22-0.92,0.52-1.28,0.91s-0.64,0.85-0.84,1.39
			C65.01,83.03,64.91,83.62,64.91,84.26z"/>
		<path d="M51.41,77.12l3.07,5.62h1.17v-5.62h3.34v14.16h-5.4c-0.68,0-1.34-0.07-1.99-0.21c-0.65-0.14-1.23-0.38-1.74-0.71
			c-0.51-0.33-0.92-0.77-1.23-1.32s-0.46-1.23-0.46-2.04c0-0.96,0.26-1.77,0.78-2.42s1.24-1.12,2.16-1.4l-3.7-6.06H51.41z
			 M51.55,86.94c0,0.33,0.07,0.6,0.21,0.81s0.32,0.37,0.54,0.48c0.22,0.11,0.47,0.19,0.74,0.23c0.27,0.04,0.54,0.06,0.79,0.06h1.83
			v-3.3h-1.63c-0.28,0-0.57,0.02-0.86,0.07s-0.56,0.13-0.8,0.25c-0.24,0.12-0.44,0.29-0.59,0.52
			C51.62,86.29,51.55,86.58,51.55,86.94z"/>
		<path d="M36.73,77.12l5.7,9.26h0.06l-0.08-9.26h3.32v14.16h-3.9l-5.68-9.24h-0.06l0.08,9.24h-3.32V77.12H36.73z"/>
		<path d="M29.93,77.12v14.16h-9.52V88.4h6.22v-2.68h-5.88v-2.74h5.88v-2.94h-6.58v-2.92H29.93z"/>
		<path d="M10.21,77.12l3.07,5.62h1.17v-5.62h3.34v14.16h-5.4c-0.68,0-1.34-0.07-1.99-0.21c-0.65-0.14-1.23-0.38-1.74-0.71
			c-0.51-0.33-0.92-0.77-1.23-1.32S6.97,87.82,6.97,87c0-0.96,0.26-1.77,0.78-2.42s1.24-1.12,2.16-1.4l-3.7-6.06H10.21z
			 M10.35,86.94c0,0.33,0.07,0.6,0.21,0.81s0.32,0.37,0.54,0.48c0.22,0.11,0.47,0.19,0.74,0.23c0.27,0.04,0.54,0.06,0.79,0.06h1.83
			v-3.3h-1.63c-0.28,0-0.57,0.02-0.86,0.07s-0.56,0.13-0.8,0.25c-0.24,0.12-0.44,0.29-0.59,0.52
			C10.42,86.29,10.35,86.58,10.35,86.94z"/>
	</g>
	<g>
		<path d="M91.79,83.76c0,3.27-0.84,6.15-2.52,8.65c-1.68,2.5-3.95,4.52-6.8,6.05c-2.49,1.32-5.32,2.32-8.51,2.98
			c-3.19,0.66-6.67,0.99-10.44,0.99c-0.54,0-1.15,0-1.83,0c-0.68,0-1.19,0-1.52,0l0.25,21.95h-7.63c0.04-1.74,0.09-4.02,0.15-6.85
			c0.06-2.83,0.09-4.99,0.09-6.48c-0.04-4.38-0.09-8.25-0.15-11.6c-0.06-3.35-0.09-5.15-0.09-5.4c0.87,0.08,2.55,0.17,5.05,0.25
			c2.5,0.08,4.54,0.12,6.11,0.12c0.74,0,2.27-0.04,4.59-0.12c2.31-0.08,4.55-0.54,6.7-1.36c1.9-0.74,3.5-1.76,4.81-3.04
			c1.3-1.28,1.95-3.08,1.95-5.4c0-1.53-0.41-2.86-1.24-4c-0.83-1.14-2.03-2.2-3.6-3.19c-1.94-1.24-4.36-2.49-7.26-3.75
			c-2.89-1.26-5.31-2.47-7.26-3.63c-2.81-1.69-4.89-3.66-6.23-5.89c-1.34-2.23-2.02-4.88-2.02-7.94c0-2.48,0.62-4.88,1.86-7.19
			c1.24-2.31,3.11-4.3,5.59-5.95c1.99-1.32,4.45-2.37,7.4-3.13c2.94-0.76,6.28-1.15,10.01-1.15c0.46,0,0.95,0,1.49,0s0.93,0,1.18,0
			l-0.31-21.08h7.63c-0.04,2.15-0.08,4.35-0.12,6.6c-0.04,2.25-0.06,4.29-0.06,6.11c0,4.22,0.03,7.98,0.09,11.29
			c0.06,3.31,0.09,5.13,0.09,5.46c-0.37-0.04-1.5-0.11-3.39-0.22c-1.89-0.1-4.28-0.15-7.18-0.15c-1.7,0-3.37,0.13-5,0.4
			c-1.64,0.27-3.14,0.73-4.51,1.4c-1.82,0.91-3.15,2.04-3.98,3.38c-0.83,1.34-1.24,2.59-1.24,3.75c0,1.36,0.44,2.63,1.31,3.78
			c0.87,1.16,1.97,2.15,3.29,2.98c1.95,1.2,4.31,2.39,7.08,3.57c2.77,1.18,5.32,2.51,7.64,4c2.4,1.53,4.42,3.41,6.06,5.64
			C90.97,77.8,91.79,80.53,91.79,83.76z"/>
	</g>
</g>
</svg>
